<svg id="Line" viewBox="0 0 64 64" xmlns="http://www.w3.org/2000/svg"><path d="m34 34.25h-10c-.4141 0-.75.3359-.75.75s.3359.75.75.75h10c.4141 0 .75-.3359.75-.75s-.3359-.75-.75-.75z"/><path d="m34 28.25h-10c-.4141 0-.75.3359-.75.75s.3359.75.75.75h10c.4141 0 .75-.3359.75-.75s-.3359-.75-.75-.75z"/><path d="m24 23.75h10c.4141 0 .75-.3359.75-.75s-.3359-.75-.75-.75h-10c-.4141 0-.75.3359-.75.75s.3359.75.75.75z"/><path d="m20 34.25h-6c-.4141 0-.75.3359-.75.75s.3359.75.75.75h6c.4141 0 .75-.3359.75-.75s-.3359-.75-.75-.75z"/><path d="m20 28.25h-6c-.4141 0-.75.3359-.75.75s.3359.75.75.75h6c.4141 0 .75-.3359.75-.75s-.3359-.75-.75-.75z"/><path d="m20 22.25h-6c-.4141 0-.75.3359-.75.75s.3359.75.75.75h6c.4141 0 .75-.3359.75-.75s-.3359-.75-.75-.75z"/><path d="m20 40.25h-6c-.4141 0-.75.3359-.75.75s.3359.75.75.75h6c.4141 0 .75-.3359.75-.75s-.3359-.75-.75-.75z"/><path d="m20 46.25h-6c-.4141 0-.75.3359-.75.75s.3359.75.75.75h6c.4141 0 .75-.3359.75-.75s-.3359-.75-.75-.75z"/><path d="m59.5986 38.791-12.0005-8.5713c-.8444-.6021-1.944-.6704-2.8481-.209v-16.0107c0-2.6191-2.1309-4.75-4.75-4.75h-6.25v-.25c0-.9648-.7852-1.75-1.75-1.75h-3.3091c-.3608-2.2637-2.3267-4-4.6909-4s-4.3301 1.7363-4.6909 4h-3.3091c-.9648 0-1.75.7852-1.75 1.75v.25h-6.25c-2.6191 0-4.75 2.1309-4.75 4.75v42c0 2.6191 2.1309 4.75 4.75 4.75h50c1.5166 0 2.75-1.2334 2.75-2.75v-16.9707c0-.8857-.4302-1.7217-1.1514-2.2383zm-19.5986-28.041c1.792 0 3.25 1.458 3.25 3.25v17.0421l-2.5 1.7856v-18.8277c0-.4141-.3359-.75-.75-.75h-6.2753c.012-.0823.0253-.1644.0253-.25v-2.25zm-8.6235 29.5h-7.3765c-.4141 0-.75.3359-.75.75s.3359.75.75.75h7.25v4.5h-7.25c-.4141 0-.75.3359-.75.75s.3359.75.75.75h7.25v7.5h-22.5v-40.5h30.5v19.149l-6.8491 4.892c-.5024.3601-.8516.8799-1.0244 1.459zm-15.6265-31.25c0-.1377.1123-.25.25-.25h4c.4141 0 .75-.3359.75-.75 0-1.792 1.458-3.25 3.25-3.25s3.25 1.458 3.25 3.25c0 .4141.3359.75.75.75h4c.1377 0 .25.1123.25.25v4c0 .1377-.1123.25-.25.25h-16c-.1377 0-.25-.1123-.25-.25zm-11 47v-42c0-1.792 1.458-3.25 3.25-3.25h6.25v2.25c0 .0856.0133.1677.0253.25h-6.2753c-.4141 0-.75.3359-.75.75v42c0 .4141.3359.75.75.75h23.25v1.25c0 .4524.1202.8732.3145 1.25h-23.5645c-1.792 0-3.25-1.458-3.25-3.25zm37 3.25v-10.5h8.5v10.5zm17.5-1.25c0 .6895-.5605 1.25-1.25 1.25h-6.25v-11.25c0-.4141-.3359-.75-.75-.75h-10c-.4141 0-.75.3359-.75.75v11.25h-6.25c-.6895 0-1.25-.5605-1.25-1.25v-16.9707c0-.4023.1958-.7832.5234-1.0176l12-8.5713h-.0005c.4346-.3105 1.019-.3105 1.4536 0l11.9995 8.5713c.3281.2344.5239.6152.5239 1.0176v16.9707z"/></svg>