<?xml version="1.0" encoding="utf-8"?>
<!-- Generator: Adobe Illustrator 26.0.1, SVG Export Plug-In . SVG Version: 6.00 Build 0)  -->
<svg version="1.1" id="Layer_1" xmlns="http://www.w3.org/2000/svg" xmlns:xlink="http://www.w3.org/1999/xlink" x="0px" y="0px"
	 viewBox="0 0 217.78 217.78" style="enable-background:new 0 0 217.78 217.78;" xml:space="preserve">
<style type="text/css">
	.st0{fill:#2C64EA;}
</style>
<g>
	<path class="st0" d="M108.89,98.52c1.53,0,2.98,0.34,4.29,0.94l28.12-61.86L112.78,0L68.7,22.04l40.19,55.74V98.52z"/>
	<path class="st0" d="M195.74,68.7L140,108.89h-20.74c0,1.53-0.34,2.98-0.94,4.29l61.86,28.12l37.59-28.52L195.74,68.7z"/>
	<path class="st0" d="M108.89,140v-20.74c-1.53,0-2.98-0.34-4.29-0.94l-28.12,61.86L105,217.78l44.07-22.04L108.89,140z"/>
	<path class="st0" d="M37.59,76.48L0,105l22.04,44.07l55.74-40.19h20.74c0-1.53,0.34-2.98,0.94-4.29L37.59,76.48z"/>
</g>
</svg>
