<?xml version="1.0" encoding="utf-8"?>
<!-- Generator: Adobe Illustrator 26.0.1, SVG Export Plug-In . SVG Version: 6.00 Build 0)  -->
<svg version="1.1" id="Layer_1" xmlns="http://www.w3.org/2000/svg" xmlns:xlink="http://www.w3.org/1999/xlink" x="0px" y="0px"
	 viewBox="0 0 590.35 141.99" style="enable-background:new 0 0 590.35 141.99;" xml:space="preserve">
<style type="text/css">
	.st0{fill:#2C64EA;}
</style>
<g>
	<path class="st0" d="M368.46,37.33v67.33c0,1.1,0.9,2,2,2h43.11c1.1,0,2-0.9,2-2v-8.67c0-1.1-0.9-2-2-2h-30.44c-1.1,0-2-0.9-2-2
		V37.33c0-1.1-0.9-2-2-2h-8.67C369.36,35.33,368.46,36.22,368.46,37.33z"/>
	<path class="st0" d="M353.75,45.99v-8.67c0-1.1-0.9-2-2-2h-43.11c-1.1,0-2,0.9-2,2v67.33c0,1.1,0.9,2,2,2h43.11c1.1,0,2-0.9,2-2
		v-8.67c0-1.1-0.9-2-2-2H321.3c-1.1,0-2-0.9-2-2V79.33c0-1.1,0.9-2,2-2h30.44c1.1,0,2-0.9,2-2v-8.67c0-1.1-0.9-2-2-2H321.3
		c-1.1,0-2-0.9-2-2V49.99c0-1.1,0.9-2,2-2h30.44C352.85,47.99,353.75,47.1,353.75,45.99z"/>
	<path class="st0" d="M279.51,36.88l-9.22,40.05c-0.24,1.03-1.7,1.04-1.95,0.01l-9.47-40.07c-0.21-0.9-1.02-1.54-1.95-1.54h-8.5
		c-1.29,0-2.24,1.2-1.95,2.46l15.91,67.33c0.21,0.9,1.02,1.54,1.95,1.54h10.13c0.93,0,1.74-0.64,1.95-1.55l15.51-67.33
		c0.29-1.25-0.66-2.45-1.95-2.45h-8.51C280.53,35.33,279.72,35.97,279.51,36.88z"/>
</g>
<g>
	<path class="st0" d="M528.57,45.99v-8.67c0-1.1-0.9-2-2-2h-43.11c-1.1,0-2,0.9-2,2v67.33c0,1.1,0.9,2,2,2h43.11c1.1,0,2-0.9,2-2
		v-8.67c0-1.1-0.9-2-2-2h-30.44c-1.1,0-2-0.9-2-2V79.33c0-1.1,0.9-2,2-2h30.44c1.1,0,2-0.9,2-2v-8.67c0-1.1-0.9-2-2-2h-30.44
		c-1.1,0-2-0.9-2-2V49.99c0-1.1,0.9-2,2-2h30.44C527.68,47.99,528.57,47.1,528.57,45.99z"/>
	<path class="st0" d="M590.35,104.66V37.33c0-1.1-0.9-2-2-2h-8.67c-1.1,0-2,0.9-2,2v39.11c0,1.07-1.45,1.39-1.91,0.43l-18.97-40.38
		c-0.33-0.7-1.04-1.15-1.81-1.15h-9.76c-1.1,0-2,0.9-2,2v67.33c0,1.1,0.9,2,2,2h8.67c1.1,0,2-0.9,2-2V65.55
		c0-1.07,1.45-1.39,1.91-0.43l18.97,40.38c0.33,0.7,1.04,1.15,1.81,1.15h9.76C589.45,106.66,590.35,105.76,590.35,104.66z"/>
	<path class="st0" d="M454.34,36.88l-9.22,40.05c-0.24,1.03-1.7,1.04-1.95,0.01l-9.47-40.07c-0.21-0.9-1.02-1.54-1.95-1.54h-8.5
		c-1.29,0-2.24,1.2-1.95,2.46l15.91,67.33c0.21,0.9,1.02,1.54,1.95,1.54h10.13c0.93,0,1.74-0.64,1.95-1.55l15.51-67.33
		c0.29-1.25-0.66-2.45-1.95-2.45h-8.51C455.35,35.33,454.54,35.97,454.34,36.88z"/>
</g>
<g>
	<path class="st0" d="M86.64,51.56L12.85,1.44c-2.57-1.74-5.73-1.92-8.48-0.47C1.64,2.42,0,5.14,0,8.24v9.15
		c0,2.65,1.28,5.15,3.43,6.69l58.22,41.76c1.54,1.1,2.45,2.89,2.45,4.78v0.75c0,1.89-0.92,3.68-2.45,4.78L3.43,117.9
		C1.28,119.44,0,121.94,0,124.59v9.15c0,3.1,1.64,5.82,4.38,7.27c1.23,0.65,2.55,0.98,3.87,0.98c1.6,0,3.2-0.48,4.61-1.44
		l73.78-50.13c2.26-1.53,3.6-4.08,3.6-6.81V58.37C90.24,55.64,88.89,53.1,86.64,51.56z"/>
	<path class="st0" d="M139.34,65.84l58.14-41.76c2.15-1.54,3.43-4.04,3.43-6.68V8.25c0-3.1-1.64-5.82-4.38-7.27
		c-2.74-1.45-5.91-1.28-8.48,0.47l-73.69,50.12c-2.25,1.53-3.6,4.08-3.6,6.8v25.25c0,2.73,1.35,5.27,3.6,6.8l73.69,50.12
		c1.41,0.96,3.01,1.45,4.61,1.45c1.31,0,2.63-0.32,3.86-0.98c2.74-1.45,4.38-4.17,4.38-7.27v-9.15c0-2.64-1.28-5.14-3.43-6.68
		l-58.14-41.76c-1.53-1.1-2.45-2.89-2.45-4.77v-0.75C136.89,68.73,137.8,66.94,139.34,65.84z"/>
</g>
</svg>
